HIERARCHY
ROOT hip
{
  OFFSET 0.00112043 5.09927 -9.65472
  CHANNELS 6 Xposition Yposition Zposition Zrotation Xrotation Yrotation
  JOINT abdomen
  {
    OFFSET 0 -1.186 -1.5018
    CHANNELS 3 Zrotation Xrotation Yrotation
    JOINT abdomen2
    {
      OFFSET 0 9.964 0.2134
      CHANNELS 3 Zrotation Xrotation Yrotation
      JOINT chest
      {
        OFFSET 0 13.134 -3.2573
        CHANNELS 3 Zrotation Xrotation Yrotation
        JOINT neck
        {
          OFFSET 0 20.686 -1.6905
          CHANNELS 3 Zrotation Xrotation Yrotation
          JOINT head
          {
            OFFSET 0 7.238 -0.1237
            CHANNELS 3 Zrotation Xrotation Yrotation
            End Site
            {
              OFFSET 0 0 0
            }
          }
        }
        JOINT lCollar
        {
          OFFSET 1.7069 20.075 5.0056
          CHANNELS 3 Zrotation Xrotation Yrotation
          JOINT lShldr
          {
            OFFSET 13.6458 -0.047 -4.849
            CHANNELS 3 Zrotation Xrotation Yrotation
            JOINT lForeArm
            {
              OFFSET 28.3255 -0.9759 2.2888
              CHANNELS 3 Zrotation Xrotation Yrotation
              JOINT lHand
              {
                OFFSET 22.1583 -0.53 10.8316
                CHANNELS 3 Zrotation Xrotation Yrotation
                JOINT lThumb1
                {
                  OFFSET 0.786 0.112 2.5817
                  CHANNELS 3 Zrotation Xrotation Yrotation
                  JOINT lThumb2
                  {
                    OFFSET 0.3601 -0.878 4.2331
                    CHANNELS 3 Zrotation Xrotation Yrotation
                    JOINT lThumb2_End
                    {
                      OFFSET 1.8127 -1.216 2.2227
                      CHANNELS 3 Zrotation Xrotation Yrotation
                      End Site
                      {
                        OFFSET 0.0181 -0.0122 0.0222
                      }
                    }
                  }
                }
                JOINT lCarpal1
                {
                  OFFSET 0.9571 1.114 1.7695
                  CHANNELS 3 Zrotation Xrotation Yrotation
                  JOINT lIndex1
                  {
                    OFFSET 4.1246 0.487 4.1451
                    CHANNELS 3 Zrotation Xrotation Yrotation
                    JOINT lIndex2
                    {
                      OFFSET 3.4052 -1.454 2.7682
                      CHANNELS 3 Zrotation Xrotation Yrotation
                      JOINT lIndex2_End
                      {
                        OFFSET 1.4531 -1.795 1.2713
                        CHANNELS 3 Zrotation Xrotation Yrotation
                        End Site
                        {
                          OFFSET 0.0145 -0.0179 0.0127
                        }
                      }
                    }
                  }
                  JOINT lMid1
                  {
                    OFFSET 5.6954 0.21 2.1184
                    CHANNELS 3 Zrotation Xrotation Yrotation
                    JOINT lMid2
                    {
                      OFFSET 3.9766 -1.54 2.3863
                      CHANNELS 3 Zrotation Xrotation Yrotation
                      JOINT lMid2_End
                      {
                        OFFSET 1.4042 -1.926 1.125
                        CHANNELS 3 Zrotation Xrotation Yrotation
                        End Site
                        {
                          OFFSET 0.014 -0.0193 0.0113
                        }
                      }
                    }
                  }
                }
                JOINT lCarpal2
                {
                  OFFSET 2.0956 0.66 -0.3894
                  CHANNELS 3 Zrotation Xrotation Yrotation
                  JOINT lRing1
                  {
                    OFFSET 5.0395 -0.09 2.4971
                    CHANNELS 3 Zrotation Xrotation Yrotation
                    JOINT lRing2
                    {
                      OFFSET 3.7921 -1.552 1.4806
                      CHANNELS 3 Zrotation Xrotation Yrotation
                      JOINT lRing2_End
                      {
                        OFFSET 1.4655 -1.808 0.9609
                        CHANNELS 3 Zrotation Xrotation Yrotation
                        End Site
                        {
                          OFFSET 0.0147 -0.0181 0.0096
                        }
                      }
                    }
                  }
                  JOINT lPinky1
                  {
                    OFFSET 4.9141 -1.269 0.3591
                    CHANNELS 3 Zrotation Xrotation Yrotation
                    JOINT lPinky2
                    {
                      OFFSET 3.1477 -1.685 0.8462
                      CHANNELS 3 Zrotation Xrotation Yrotation
                      JOINT lPinky2_End
                      {
                        OFFSET 0.8055 -1.585 0.7955
                        CHANNELS 3 Zrotation Xrotation Yrotation
                        End Site
                        {
                          OFFSET 0.0081 -0.0158 0.008
                        }
                      }
                    }
                  }
                }
              }
            }
          }
        }
        JOINT rCollar
        {
          OFFSET -1.7069 20.075 5.0056
          CHANNELS 3 Zrotation Xrotation Yrotation
          JOINT rShldr
          {
            OFFSET -13.6458 -0.047 -4.849
            CHANNELS 3 Zrotation Xrotation Yrotation
            JOINT rForeArm
            {
              OFFSET -28.3255 -0.9759 2.2888
              CHANNELS 3 Zrotation Xrotation Yrotation
              JOINT rHand
              {
                OFFSET -22.1583 -0.53 10.8316
                CHANNELS 3 Zrotation Xrotation Yrotation
                JOINT rThumb1
                {
                  OFFSET -0.786 0.112 2.5817
                  CHANNELS 3 Zrotation Xrotation Yrotation
                  JOINT rThumb2
                  {
                    OFFSET -0.3601 -0.878 4.2331
                    CHANNELS 3 Zrotation Xrotation Yrotation
                    JOINT rThumb2_End
                    {
                      OFFSET -1.8127 -1.216 2.2227
                      CHANNELS 3 Zrotation Xrotation Yrotation
                      End Site
                      {
                        OFFSET -0.0181 -0.0122 0.0222
                      }
                    }
                  }
                }
                JOINT rCarpal1
                {
                  OFFSET -0.9571 1.114 1.7695
                  CHANNELS 3 Zrotation Xrotation Yrotation
                  JOINT rIndex1
                  {
                    OFFSET -4.1246 0.487 4.1451
                    CHANNELS 3 Zrotation Xrotation Yrotation
                    JOINT rIndex2
                    {
                      OFFSET -3.4052 -1.454 2.7682
                      CHANNELS 3 Zrotation Xrotation Yrotation
                      JOINT rIndex2_End
                      {
                        OFFSET -1.4531 -1.795 1.2713
                        CHANNELS 3 Zrotation Xrotation Yrotation
                        End Site
                        {
                          OFFSET -0.0145 -0.018 0.0127
                        }
                      }
                    }
                  }
                  JOINT rMid1
                  {
                    OFFSET -5.6954 0.21 2.1184
                    CHANNELS 3 Zrotation Xrotation Yrotation
                    JOINT rMid2
                    {
                      OFFSET -3.9766 -1.54 2.3863
                      CHANNELS 3 Zrotation Xrotation Yrotation
                      JOINT rMid2_End
                      {
                        OFFSET -1.4042 -1.926 1.125
                        CHANNELS 3 Zrotation Xrotation Yrotation
                        End Site
                        {
                          OFFSET -0.014 -0.0193 0.0113
                        }
                      }
                    }
                  }
                }
                JOINT rCarpal2
                {
                  OFFSET -2.0956 0.66 -0.3894
                  CHANNELS 3 Zrotation Xrotation Yrotation
                  JOINT rRing1
                  {
                    OFFSET -5.0395 -0.09 2.4971
                    CHANNELS 3 Zrotation Xrotation Yrotation
                    JOINT rRing2
                    {
                      OFFSET -3.7921 -1.552 1.4806
                      CHANNELS 3 Zrotation Xrotation Yrotation
                      JOINT rRing2_End
                      {
                        OFFSET -1.4655 -1.808 0.9609
                        CHANNELS 3 Zrotation Xrotation Yrotation
                        End Site
                        {
                          OFFSET -0.0147 -0.0181 0.0096
                        }
                      }
                    }
                  }
                  JOINT rPinky1
                  {
                    OFFSET -4.9141 -1.269 0.3592
                    CHANNELS 3 Zrotation Xrotation Yrotation
                    JOINT rPinky2
                    {
                      OFFSET -3.1477 -1.685 0.8462
                      CHANNELS 3 Zrotation Xrotation Yrotation
                      JOINT rPinky2_End
                      {
                        OFFSET -0.8055 -1.585 0.7955
                        CHANNELS 3 Zrotation Xrotation Yrotation
                        End Site
                        {
                          OFFSET -0.0081 -0.0158 0.008
                        }
                      }
                    }
                  }
                }
              }
            }
          }
        }
      }
    }
  }
  JOINT lThigh
  {
    OFFSET 8.367 -8.2066 0.5982
    CHANNELS 3 Zrotation Xrotation Yrotation
    JOINT lShin
    {
      OFFSET 2.1923 -43.463 -0.4932
      CHANNELS 3 Zrotation Xrotation Yrotation
      JOINT lFoot
      {
        OFFSET 0.7333 -45.8593 -2.6451
        CHANNELS 3 Zrotation Xrotation Yrotation
        End Site
        {
          OFFSET 2.6618 -4.2699 12.3931
        }
      }
    }
  }
  JOINT rThigh
  {
    OFFSET -8.367 -8.2066 0.5982
    CHANNELS 3 Zrotation Xrotation Yrotation
    JOINT rShin
    {
      OFFSET -2.1923 -43.463 -0.4931
      CHANNELS 3 Zrotation Xrotation Yrotation
      JOINT rFoot
      {
        OFFSET -0.7333 -45.8593 -2.6451
        CHANNELS 3 Zrotation Xrotation Yrotation
        End Site
        {
          OFFSET -2.6618 -4.2699 12.3931
        }
      }
    }
  }
}
MOTION
Frames:	6
Frame Time:	0.0333333
0 91.7903 2.51682 0 0 -0 0 0 -0 0 0 -0 0 0 -0 0 0 -0 0 0 -0 0 0 -0 1.66051 0.0835086 5.75766 -0.0175111 0.895433 15.7816 7.95139e-016 -1.98785e-016 -0 5.46658e-016 -3.97569e-016 -0 5.96354e-016 0 -0 3.97569e-016 1.98785e-016 9.54166e-015 1.49089e-016 -3.97569e-016 -0 6.4605e-016 0 3.18055e-015 5.96354e-016 0 3.18055e-015 8.94531e-016 -1.98785e-016 6.36111e-015 6.4605e-016 0 3.18055e-015 5.96354e-016 0 3.18055e-015 8.94531e-016 -1.98785e-016 6.36111e-015 1.49089e-016 -3.97569e-016 -0 6.4605e-016 0 3.18055e-015 5.96354e-016 0 3.18055e-015 8.94531e-016 -1.98785e-016 6.36111e-015 6.4605e-016 0 3.18055e-015 5.96354e-016 0 3.18055e-015 8.94531e-016 -1.98785e-016 6.36111e-015 0 0 -0 -1.4496 0.0636048 -5.0245 -1.74811 1.20616 -16.8394 -1.19271e-015 1.98785e-016 -3.18055e-015 -3.97569e-016 1.98785e-016 -3.18055e-015 -2.98177e-016 1.98785e-016 -3.18055e-015 -2.98177e-016 3.97569e-016 -0 4.96962e-016 0 -6.36111e-015 -9.93923e-017 3.97569e-016 -0 -8.94531e-016 5.96354e-016 -0 -3.97569e-016 3.97569e-016 -0 -9.93923e-017 3.97569e-016 -0 -8.94531e-016 5.96354e-016 -0 -3.97569e-016 3.97569e-016 -0 4.96962e-016 0 -6.36111e-015 -9.93923e-017 3.97569e-016 -0 -8.94531e-016 5.96354e-016 -0 -3.97569e-016 3.97569e-016 -0 -9.93923e-017 3.97569e-016 -0 -8.94531e-016 5.96354e-016 -0 -3.97569e-016 3.97569e-016 -0 -4.66111 -0.998717 0.12318 0.00986924 1.54847 0.176523 4.65186 -0.572283 -0.254274 4.66111 -0.998765 -0.123176 -0.00986867 1.54869 -0.176537 -4.65186 -0.572453 0.25427 
-0.988717 2.2914 -8.52743 -0 -85.0005 -0 0.575646 -3.04737 -0.371332 1.13388 -6.09827 -0.713454 1.13388 -6.09825 -0.713455 21.0005 -0.935117 0.35649 11.0405 -4.9108 0.954927 -26.3193 4.01308 -16.2615 -52.9591 -7.26776 -10.2269 6.5051 3.7684 -6.68521 -45.6744 25.8966 5.73625 -3.97569e-016 -2.04748e-014 3.18055e-015 2.38542e-015 -2.3059e-014 3.18055e-015 1.19271e-015 -2.42517e-014 3.18055e-015 1.19271e-015 1.19271e-015 -0 -3.18055e-015 -2.70347e-014 -0 2.6042e-030 -2.34566e-014 6.36111e-015 1.19271e-015 -2.127e-014 -3.18055e-015 -3.18055e-015 -2.70347e-014 -0 2.6042e-030 -2.34566e-014 6.36111e-015 1.19271e-015 -2.127e-014 -3.18055e-015 1.19271e-015 1.19271e-015 -0 -3.18055e-015 -2.70347e-014 -0 2.6042e-030 -2.34566e-014 6.36111e-015 1.19271e-015 -2.127e-014 -3.18055e-015 -3.18055e-015 -2.70347e-014 -0 2.6042e-030 -2.34566e-014 6.36111e-015 1.19271e-015 -2.127e-014 -3.18055e-015 19.0741 -14.3836 -7.50154 57.9889 -4.59473 6.77422 14.0571 27.9422 59.6879 25.7541 10.4796 -2.37033 1.78906e-015 0 -2.38542e-015 1.78906e-015 0 -7.95139e-016 1.39149e-015 -1.59028e-015 7.95139e-016 1.59028e-015 0 -1.59028e-015 7.95139e-016 0 3.18055e-015 1.19271e-015 -3.18055e-015 -1.59028e-015 1.98785e-015 1.59028e-015 -1.59028e-015 7.95139e-016 0 3.18055e-015 1.19271e-015 -3.18055e-015 -1.59028e-015 1.98785e-015 1.59028e-015 -1.59028e-015 1.59028e-015 0 -1.59028e-015 7.95139e-016 0 3.18055e-015 1.19271e-015 -3.18055e-015 -1.59028e-015 1.98785e-015 1.59028e-015 -1.59028e-015 7.95139e-016 0 3.18055e-015 1.19271e-015 -3.18055e-015 -1.59028e-015 1.98785e-015 1.59028e-015 -1.59028e-015 5.84423 -16.3056 6.37287 -12.4849 33.0373 25.3703 15.8816 25.147 -13.9947 -4.62323 -14.7105 -2.8825 11.5363 28.9743 -25.7469 -6.47151 25.2326 9.31883 
-0.989588 2.4297 -8.53759 -0 -85.3345 -0 0.574672 -2.84995 -0.38275 1.13235 -5.70354 -0.738193 1.13235 -5.70355 -0.738193 20.8203 -0.617623 0.354286 10.8447 -4.68617 0.939455 -26.1818 3.58795 -16.4929 -52.9591 -7.26777 -10.2269 6.50508 3.76841 -6.68519 -45.6745 25.8966 5.73626 -3.97569e-016 9.74045e-015 6.36111e-015 7.95139e-016 8.94531e-015 3.18055e-015 -7.95139e-016 3.57812e-015 3.18055e-015 -1.98785e-015 8.54774e-015 9.54166e-015 -3.57812e-015 4.37326e-015 -0 -5.1684e-015 -5.56597e-015 -6.36111e-015 -7.95139e-016 1.98785e-016 -0 -3.57812e-015 4.37326e-015 -0 -5.1684e-015 -5.56597e-015 -6.36111e-015 -7.95139e-016 1.98785e-016 -0 -1.98785e-015 8.54774e-015 9.54166e-015 -3.57812e-015 4.37326e-015 -0 -5.1684e-015 -5.56597e-015 -6.36111e-015 -7.95139e-016 1.98785e-016 -0 -3.57812e-015 4.37326e-015 -0 -5.1684e-015 -5.56597e-015 -6.36111e-015 -7.95139e-016 1.98785e-016 -0 18.9867 -14.8847 -7.29913 57.9889 -4.59474 6.77423 14.0571 27.9422 59.6879 25.7541 10.4796 -2.37033 4.37326e-015 -7.95139e-015 2.38542e-015 1.59028e-015 0 -7.95139e-016 1.09332e-014 -3.18055e-015 7.95139e-016 4.37326e-015 -7.95139e-015 1.59028e-015 3.97569e-016 0 4.77083e-015 -6.16232e-015 -1.59028e-015 7.95139e-016 2.38542e-015 -1.59028e-015 7.95139e-016 3.97569e-016 0 4.77083e-015 -6.16232e-015 -1.59028e-015 7.95139e-016 2.38542e-015 -1.59028e-015 7.95139e-016 4.37326e-015 -7.95139e-015 1.59028e-015 3.97569e-016 0 4.77083e-015 -6.16232e-015 -1.59028e-015 7.95139e-016 2.38542e-015 -1.59028e-015 7.95139e-016 3.97569e-016 0 4.77083e-015 -6.16232e-015 -1.59028e-015 7.95139e-016 2.38542e-015 -1.59028e-015 7.95139e-016 5.32257 -15.9238 5.03087 -12.4942 33.0555 25.3821 14.9356 25.4274 -12.6148 -4.03414 -14.3069 -1.21283 11.5437 28.986 -25.7433 -5.33138 25.3453 7.51005 
-0.990225 2.56829 -8.54739 -0 -85.6686 -0 0.573766 -2.65166 -0.394159 1.13106 -5.30707 -0.762912 1.13106 -5.30708 -0.762911 20.6402 -0.30013 0.355162 10.649 -4.46151 0.924769 -26.0461 3.16209 -16.7233 -52.9591 -7.26776 -10.2269 6.50508 3.76841 -6.6852 -45.6745 25.8966 5.73627 -3.97569e-016 8.34896e-015 -0 5.56597e-015 1.59028e-015 -3.18055e-015 -7.95139e-016 -5.96354e-015 -6.36111e-015 -3.97569e-016 9.14409e-015 3.18055e-015 -3.97569e-016 -3.18055e-015 1.59028e-014 1.59028e-015 4.37326e-015 -3.18055e-015 -0 -3.57812e-015 -0 -3.97569e-016 -3.18055e-015 1.59028e-014 1.59028e-015 4.37326e-015 -3.18055e-015 -0 -3.57812e-015 -0 -3.97569e-016 9.14409e-015 3.18055e-015 -3.97569e-016 -3.18055e-015 1.59028e-014 1.59028e-015 4.37326e-015 -3.18055e-015 -0 -3.57812e-015 -0 -3.97569e-016 -3.18055e-015 1.59028e-014 1.59028e-015 4.37326e-015 -3.18055e-015 -0 -3.57812e-015 -0 18.9008 -15.3863 -7.09697 57.9889 -4.59474 6.77422 14.0571 27.9422 59.6879 25.7541 10.4796 -2.37033 -9.14409e-015 4.77083e-015 7.95139e-016 -5.76476e-015 4.77083e-015 1.59028e-015 -2.18663e-015 4.77083e-015 7.95139e-016 -8.94531e-015 1.59028e-015 -0 -7.35503e-015 3.18055e-015 7.95139e-015 -7.7526e-015 4.77083e-015 -7.95139e-016 -7.55382e-015 6.36111e-015 1.59028e-015 -7.35503e-015 3.18055e-015 7.95139e-015 -7.7526e-015 4.77083e-015 -7.95139e-016 -7.55382e-015 6.36111e-015 1.59028e-015 -8.94531e-015 1.59028e-015 -0 -7.35503e-015 3.18055e-015 7.95139e-015 -7.7526e-015 4.77083e-015 -7.95139e-016 -7.55382e-015 6.36111e-015 1.59028e-015 -7.35503e-015 3.18055e-015 7.95139e-015 -7.7526e-015 4.77083e-015 -7.95139e-016 -7.55382e-015 6.36111e-015 1.59028e-015 4.80856 -15.528 3.69188 -12.5027 33.0717 25.3929 13.9786 25.6882 -11.2233 -3.45459 -13.8852 0.455572 11.5497 28.9962 -25.7383 -4.18315 25.4267 5.6902 
-0.990626 2.70714 -8.55684 -0 -86.0027 -0 0.572931 -2.4526 -0.405557 1.13001 -4.9091 -0.787604 1.13001 -4.90913 -0.787604 20.46 0.0175269 0.356169 10.4534 -4.2367 0.91084 -25.9122 2.73566 -16.9526 -52.9591 -7.26776 -10.2269 6.50507 3.76842 -6.68521 -45.6745 25.8966 5.73626 -4.43066e-007 -2.82718e-007 -6.04082e-006 4.43066e-007 2.82718e-007 6.04082e-006 -4.43066e-007 -2.82718e-007 -6.04082e-006 4.77083e-015 -1.98785e-015 -0 -4.43066e-007 -2.82718e-007 -6.04082e-006 4.43066e-007 2.82718e-007 6.04082e-006 -4.43066e-007 -2.82718e-007 -6.04082e-006 -4.43066e-007 -2.82718e-007 -6.04082e-006 4.43066e-007 2.82718e-007 6.04082e-006 -4.43066e-007 -2.82718e-007 -6.04082e-006 4.77083e-015 -1.98785e-015 -0 -4.43066e-007 -2.82718e-007 -6.04082e-006 4.43066e-007 2.82718e-007 6.04082e-006 -4.43066e-007 -2.82718e-007 -6.04082e-006 -4.43066e-007 -2.82718e-007 -6.04082e-006 4.43066e-007 2.82718e-007 6.04082e-006 -4.43066e-007 -2.82718e-007 -6.04082e-006 18.8165 -15.8882 -6.89503 57.9889 -4.59473 6.77422 14.0571 27.9422 59.6879 25.7541 10.4796 -2.37033 2.80764e-006 8.85652e-007 5.98096e-007 -7.02507e-008 -3.90796e-007 7.50532e-007 -1.05356e-014 -1.59028e-015 -2.38542e-015 7.95139e-015 1.59028e-015 -7.95139e-016 2.80764e-006 8.85652e-007 5.98096e-007 -7.02507e-008 -3.90796e-007 7.50532e-007 7.55382e-015 -6.36111e-015 -0 2.80764e-006 8.85652e-007 5.98096e-007 -7.02507e-008 -3.90796e-007 7.50532e-007 7.55382e-015 -6.36111e-015 -0 7.95139e-015 1.59028e-015 -7.95139e-016 2.80764e-006 8.85652e-007 5.98096e-007 -7.02507e-008 -3.90796e-007 7.50532e-007 7.55382e-015 -6.36111e-015 -0 2.80764e-006 8.85652e-007 5.98096e-007 -7.02507e-008 -3.90796e-007 7.50532e-007 7.55382e-015 -6.36111e-015 -0 4.30255 -15.1193 2.35633 -12.5102 33.0864 25.4027 13.0114 25.9289 -9.82086 -2.88571 -13.4438 2.12165 11.5543 29.0032 -25.7313 -3.02871 25.4761 3.86116 
-0.990782 2.84618 -8.56598 -0 -86.3368 -0 0.57216 -2.25289 -0.416931 1.1292 -4.50978 -0.812251 1.1292 -4.50979 -0.812252 20.2798 0.335143 0.357375 10.2579 -4.01191 0.897694 -25.7799 2.30855 -17.1809 -52.9591 -7.26778 -10.2269 6.50507 3.76842 -6.68519 -45.6745 25.8966 5.73627 5.1684e-015 3.18055e-015 -0 3.97569e-016 3.18055e-015 -3.18055e-015 7.95139e-016 4.37326e-015 3.18055e-015 5.1684e-015 3.18055e-015 -0 3.97569e-016 5.96354e-015 -3.18055e-015 7.95139e-016 1.03368e-014 3.18055e-015 1.98785e-015 4.77083e-015 -3.18055e-015 3.97569e-016 5.96354e-015 -3.18055e-015 7.95139e-016 1.03368e-014 3.18055e-015 1.98785e-015 4.77083e-015 -3.18055e-015 5.1684e-015 3.18055e-015 -0 3.97569e-016 5.96354e-015 -3.18055e-015 7.95139e-016 1.03368e-014 3.18055e-015 1.98785e-015 4.77083e-015 -3.18055e-015 3.97569e-016 5.96354e-015 -3.18055e-015 7.95139e-016 1.03368e-014 3.18055e-015 1.98785e-015 4.77083e-015 -3.18055e-015 18.7339 -16.3907 -6.69328 57.9889 -4.59474 6.77423 14.0571 27.9422 59.6879 25.7541 10.4796 -2.37033 -1.98785e-016 0 -2.38542e-015 3.97569e-016 -1.59028e-015 -1.59028e-015 -5.56597e-015 1.59028e-015 -3.97569e-015 -3.97569e-016 0 -1.59028e-015 -1.17283e-014 -6.36111e-015 7.15625e-015 1.09332e-014 4.77083e-015 -4.77083e-015 8.34896e-015 1.59028e-015 -7.95139e-016 -1.17283e-014 -6.36111e-015 7.15625e-015 1.09332e-014 4.77083e-015 -4.77083e-015 8.34896e-015 1.59028e-015 -7.95139e-016 -3.97569e-016 0 -1.59028e-015 -1.17283e-014 -6.36111e-015 7.15625e-015 1.09332e-014 4.77083e-015 -4.77083e-015 8.34896e-015 1.59028e-015 -7.95139e-016 -1.17283e-014 -6.36111e-015 7.15625e-015 1.09332e-014 4.77083e-015 -4.77083e-015 8.34896e-015 1.59028e-015 -7.95139e-016 3.80515 -14.6968 1.02478 -12.5168 33.0985 25.4112 12.0349 26.1491 -8.40849 -2.32827 -12.9833 3.78456 11.5573 29.0067 -25.7223 -1.87005 25.4934 2.02491 
